<?xml version="1.0" standalone="no"?>
<!DOCTYPE svg PUBLIC "-//W3C//DTD SVG 20010904//EN"
 "http://www.w3.org/TR/2001/REC-SVG-20010904/DTD/svg10.dtd">
<svg version="1.0" xmlns="http://www.w3.org/2000/svg"
 width="1080.000000pt" height="1712.000000pt" viewBox="0 0 1080.000000 1712.000000"
 preserveAspectRatio="xMidYMid meet">

<g transform="translate(0.000000,1712.000000) scale(0.100000,-0.100000)"
fill="#000000" stroke="none">
<path d="M3021 13914 l-31 -26 0 -319 0 -320 25 -23 c14 -13 39 -26 56 -30 41
-8 4617 -8 4658 0 17 4 42 18 56 32 l25 25 0 317 0 318 -31 26 -31 26 -2348 0
-2348 0 -31 -26z"/>
<path d="M3019 12541 l-29 -29 0 -320 c0 -308 1 -320 21 -346 l20 -26 2369 0
2369 0 20 26 c20 26 21 38 21 346 l0 320 -29 29 -29 29 -2352 0 -2352 0 -29
-29z"/>
<path d="M3038 11174 c-15 -8 -32 -23 -38 -34 -14 -26 -14 -625 0 -651 28 -52
-118 -49 2400 -49 2518 0 2372 -3 2400 49 14 27 14 625 0 652 -28 52 118 49
-2402 49 -2039 -1 -2336 -3 -2360 -16z"/>
<path d="M5750 9800 l0 -330 -1361 -2 -1361 -3 -19 -24 c-18 -22 -19 -43 -19
-348 l0 -324 25 -24 24 -25 1704 0 1704 0 24 26 24 26 0 676 0 677 -372 3
-373 2 0 -330z"/>
<path d="M5911 8399 c-378 -40 -757 -219 -1026 -485 -305 -300 -480 -677 -515
-1108 -11 -141 -14 -836 -4 -935 l7 -61 373 0 373 0 3 538 4 537 26 95 c67
248 181 422 354 546 182 130 440 191 693 165 444 -46 732 -306 837 -751 15
-65 18 -144 21 -602 l4 -528 375 0 374 0 0 503 c0 529 -6 613 -50 786 -79 311
-226 568 -455 796 -154 155 -273 241 -450 329 -301 149 -621 208 -944 175z"/>
<path d="M3015 7975 l-25 -24 0 -1049 0 -1049 23 -21 c23 -22 28 -22 354 -22
l332 0 20 26 c21 27 21 30 21 1061 0 1099 1 1079 -45 1097 -9 3 -160 6 -336 6
l-320 0 -24 -25z"/>
<path d="M5092 3833 l3 -818 140 0 140 0 3 48 c2 26 6 47 9 47 3 0 27 -20 53
-44 50 -47 123 -76 190 -76 54 0 150 28 193 56 124 82 189 314 173 622 -8 157
-28 249 -71 339 -62 126 -150 178 -300 178 -69 -1 -87 -4 -133 -30 -30 -16
-62 -40 -73 -53 -19 -24 -19 -22 -19 262 l0 286 -155 0 -155 0 2 -817z m519
81 c19 -10 39 -33 52 -62 20 -44 22 -63 22 -262 0 -238 -6 -272 -56 -315 -54
-45 -173 -30 -213 27 -23 32 -23 543 -1 572 41 55 132 73 196 40z"/>
<path d="M7009 4597 c-100 -66 -89 -226 18 -278 109 -53 230 12 240 128 6 64
-28 131 -77 155 -52 26 -138 24 -181 -5z"/>
<path d="M326 4548 c-7 -32 -77 -770 -74 -773 2 -1 55 -15 119 -32 l117 -31
32 34 c89 95 246 52 285 -79 20 -68 20 -228 -1 -297 -10 -33 -29 -67 -49 -87
-28 -28 -40 -33 -83 -33 -78 0 -130 55 -147 158 l-7 42 -149 0 -149 0 0 -33
c0 -44 25 -139 51 -188 45 -89 147 -176 245 -209 171 -59 353 -20 467 99 103
108 141 216 141 401 0 243 -76 405 -222 477 -45 22 -73 28 -148 31 -83 4 -98
2 -149 -22 l-57 -26 6 53 c3 28 8 90 11 137 10 146 -23 129 263 132 l247 3 0
130 0 130 -372 3 -373 2 -4 -22z"/>
<path d="M1826 4548 c-7 -13 -127 -242 -265 -510 -179 -348 -251 -497 -251
-520 0 -18 3 -63 7 -100 l6 -68 253 0 254 0 2 -167 3 -168 150 0 150 0 3 168
2 167 65 0 65 0 0 125 0 125 -65 0 -65 0 -2 483 -3 482 -147 3 c-144 2 -148 2
-162 -20z m4 -703 l0 -245 -110 0 c-60 0 -110 3 -110 6 0 9 213 484 217 484 2
0 3 -110 3 -245z"/>
<path d="M2813 4452 l-283 -117 0 -127 0 -127 63 23 c34 13 97 38 140 55 43
17 80 31 82 31 3 0 6 -264 7 -587 l3 -588 153 -3 152 -3 0 781 c0 737 -1 780
-17 779 -10 0 -145 -53 -300 -117z"/>
<path d="M3803 4452 l-283 -116 0 -128 0 -128 23 9 c186 73 260 101 263 101 2
0 5 -264 6 -587 l3 -588 153 -3 152 -3 0 781 c0 737 -1 780 -17 779 -10 0
-145 -53 -300 -117z"/>
<path d="M6629 4180 c-41 -12 -80 -41 -109 -82 l-28 -38 -7 55 -7 56 -141 -3
-142 -3 0 -575 0 -575 153 -3 152 -3 0 390 0 390 30 35 c39 44 84 59 168 54
l67 -3 3 148 3 147 -26 10 c-30 12 -79 12 -116 0z"/>
<path d="M7740 4174 c-137 -36 -220 -147 -256 -344 -20 -115 -18 -384 5 -495
43 -207 152 -324 318 -341 80 -9 161 15 213 63 l40 35 0 -261 0 -261 155 0
155 0 0 800 0 800 -134 0 -135 0 -6 -55 -7 -56 -53 50 c-81 76 -174 97 -295
65z m277 -264 c18 -11 35 -30 38 -42 3 -13 4 -147 3 -298 l-3 -274 -34 -23
c-42 -28 -134 -32 -169 -7 -64 44 -95 228 -74 439 12 122 27 166 70 202 36 30
122 32 169 3z"/>
<path d="M10010 4172 c-154 -40 -247 -137 -302 -312 -21 -68 -23 -94 -23 -275
0 -179 2 -207 22 -271 66 -210 225 -319 463 -319 110 1 169 14 260 60 48 25
130 91 130 105 0 11 -109 180 -116 180 -3 0 -25 -14 -50 -30 -62 -44 -116 -60
-196 -60 -132 0 -193 55 -212 193 l-7 47 302 0 302 0 -6 158 c-6 170 -20 240
-67 332 -33 64 -97 133 -152 161 -94 48 -235 61 -348 31z m213 -263 c31 -23
57 -101 57 -166 l0 -43 -148 0 -149 0 8 55 c11 81 27 122 60 150 41 33 132 36
172 4z"/>
<path d="M6952 3593 l3 -578 150 0 150 0 3 578 2 577 -155 0 -155 0 2 -577z"/>
<path d="M8604 4155 c-3 -8 -4 -205 -1 -437 3 -338 7 -433 19 -473 54 -177
140 -248 303 -249 94 -1 162 25 216 80 l34 35 5 -48 5 -48 143 -3 142 -3 0
581 0 580 -150 0 -150 0 0 -416 c0 -405 -1 -417 -21 -445 -28 -39 -69 -59
-122 -59 -55 0 -93 27 -107 78 -6 23 -10 194 -10 440 l0 402 -150 0 c-123 0
-152 -3 -156 -15z"/>
</g>
</svg>
